# xmcd
#
# Track frame offsets: 
#        150
#        11168
#        23828
#        40250
#        52951
#        62355
#        80426
#        92903
#        115166
#        134957
#        149572
#        165541
#        187511
#        204991
#        222352
#
# Disc length: 3105 seconds
#
# Revision: 0
# Processed by: cddbd v1.4PL0 Copyright (c) Steve Scherf et al.
# Submitted via: ExactAudioCopy v0.90a11
#
DISCID=ce0c1f0f
DTITLE=Poutnici - Vzpominky
DYEAR=1900
DGENRE=
TTITLE0=Stiny na strechach
TTITLE1=Je to v nas
TTITLE2=Obycejni smutni lidi
TTITLE3=Vzpominky
TTITLE4=Koncert D dur 3,veta Allegro
TTITLE5=Kralovna poolu
TTITLE6=Zkusenost
TTITLE7=Aktualni zpravy
TTITLE8=Lochnesska nadhera
TTITLE9=Osmiramenny svicen
TTITLE10=Vaska
TTITLE11=Dopis
TTITLE12=Corrida 2
TTITLE13=Ztroskotanci
TTITLE14=Park (ve Slavkove u Brna)
EXTD=
EXTT0=
EXTT1=
EXTT2=
EXTT3=
EXTT4=
EXTT5=
EXTT6=
EXTT7=
EXTT8=
EXTT9=
EXTT10=
EXTT11=
EXTT12=
EXTT13=
EXTT14=
PLAYORDER=
